<svg version="1.2" xmlns="http://www.w3.org/2000/svg" viewBox="0 0 645 199" width="645" height="199">
	<title>logo-svg</title>
	<style>
		.s0 { fill: #ff890a } 
		.s1 { fill: #ffffff } 
	</style>
	<path id="AF" class="s0" aria-label="AF "  d="m36.1 159h-33l43.8-117.5h33l43.3 117.5h-33.6l-32.2-99.8h11.7zm59.8-19.8h-64.4v-25.8h64.4zm-64.1 19.8h-33l43.8-117.4h33l43.4 117.4h-33.7l-32.1-99.8h11.6zm59.8-19.8h-64.3v-25.7h64.3zm77.6 19.8h-32.3v-117.5h32.3zm50.5-41.8h-56.6v-27.3h56.6zm2.4-48.4h-59v-27.4h59zm-57.1 90.1h-32.4v-117.5h32.4zm50.4-41.7h-56.6v-27.4h56.6zm2.4-48.3h-59v-27.4h59z"/>
	<path id="Store" class="s1" aria-label="Store"  d="m267.7 161q-15 0-26.3-4.3-11-4.5-20.4-14l20.6-20.7q6.5 6.1 13.5 9.4 7.1 3.2 15.2 3.2 6.8 0 10.3-2 3.4-2.1 3.4-5.8 0-3.6-2.9-5.9-3-2.5-8-4.3-4.8-2-10.7-4-5.8-1.9-11.5-4.8-5.8-2.8-10.8-6.7-4.8-4.1-7.7-10.1-3-6.1-3-14.8 0-11.4 5.5-19.7 5.4-8.2 15.3-12.5 9.9-4.5 23.3-4.5 13.2 0 24.4 4.3 11.4 4.2 18.8 11.9l-20.8 20.6q-5.4-5.2-10.9-7.7-5.4-2.7-11.9-2.7-5.1 0-8.2 1.7-3 1.6-3 4.9 0 3.5 3 5.8 3 2.2 7.7 4 5 1.8 10.8 3.8 5.9 1.9 11.7 4.8 5.8 2.6 10.5 6.9 5 4.1 8 10.4 2.9 6.2 2.9 15.2 0 17.9-12.8 27.8-12.8 9.8-36 9.8zm103.6-2h-32.3v-114.5h32.3zm17.3-54.8h-67v-26.4h67zm48.9 56.8q-13.4 0-24-5.5-10.4-5.6-16.5-15.3-5.9-9.8-5.9-22 0-12.2 5.9-21.7 6-9.6 16.4-15.1 10.5-5.6 23.9-5.6 13.4 0 23.8 5.6 10.4 5.5 16.3 15.1 6.1 9.5 6.1 21.7 0 12.2-5.9 22-6 9.7-16.4 15.3-10.4 5.5-23.7 5.5zm-0.2-28.4q4.1 0 7.1-1.7 3.1-1.8 4.8-4.9 1.6-3.3 1.6-7.6 0-4.3-1.8-7.4-1.6-3.3-4.6-5-3-1.8-7.1-1.8-4 0-7.1 1.8-3 1.8-4.8 5.1-1.6 3.2-1.6 7.5 0 4.1 1.6 7.4 1.8 3.1 4.8 4.9 3.1 1.7 7.1 1.7zm88.6 26.4h-32.3v-81.2h32.3zm0-43.9l-15-13.3q6.3-13.2 14.5-19.4 8.4-6.2 21-6.2 5.6 0 9.5 1.3 4.2 1.3 6.6 3.8l-18.1 25.7q-1.2-1.3-3.5-2.1-2.1-1-5.1-1-4.9 0-7.4 3-2.5 2.8-2.5 8.2zm81.2 45.9q-14.2 0-24.9-5.3-10.7-5.4-16.9-15-5.9-9.7-5.9-22.3 0-12.4 5.8-21.9 5.9-9.6 16.2-15 10.2-5.7 23.1-5.7 12.7 0 22.4 5.3 9.7 5.1 15.2 14.4 5.6 9.2 5.6 21.1 0 2.5-0.3 5.3-0.2 2.6-1 6.3l-73.3 0.4v-19.8l61.2-0.4-15 8.7q0-6.6-1.6-10.7-1.5-4.3-4.7-6.5-3.1-2.1-7.9-2.1-4.9 0-8.6 2.5-3.6 2.4-5.6 7.1-1.8 4.6-1.8 11.2 0 6.7 2 11.4 2.1 4.4 6.1 6.7 4 2.3 9.9 2.3 5.8 0 10.1-1.8 4.4-2 8-6.1l16.2 16q-6.1 7-14.7 10.4-8.6 3.5-19.6 3.5z"/>
</svg>